<?xml version="1.0" standalone="yes"?>

<svg version="1.1" viewBox="0.0 0.0 231.0 155.0" fill="none" stroke="none" stroke-linecap="square" stroke-miterlimit="10" xmlns="http://www.w3.org/2000/svg" xmlns:xlink="http://www.w3.org/1999/xlink"><clipPath id="p.0"><path d="m0 0l231.0 0l0 155.0l-231.0 0l0 -155.0z" clip-rule="nonzero"></path></clipPath><g clip-path="url(#p.0)"><path fill="#000000" fill-opacity="0.0" d="m0 0l231.0 0l0 155.0l-231.0 0z" fill-rule="nonzero"></path><path fill="#cfe2f3" d="m0.003937008 0.003937008l230.99213 0l0 154.99213l-230.99213 0z" fill-rule="nonzero"></path><path stroke="#000000" stroke-width="2.0" stroke-linejoin="round" stroke-linecap="butt" d="m0.003937008 0.003937008l230.99213 0l0 154.99213l-230.99213 0z" fill-rule="nonzero"></path><path fill="#000000" d="m61.072197 80.045l1.6875 -0.140625q0.125 1.015625 0.5625 1.671875q0.4375 0.65625 1.359375 1.0625q0.9375 0.40625 2.09375 0.40625q1.03125 0 1.8125 -0.3125q0.796875 -0.3125 1.1875 -0.84375q0.390625 -0.53125 0.390625 -1.15625q0 -0.640625 -0.375 -1.109375q-0.375 -0.484375 -1.234375 -0.8125q-0.546875 -0.21875 -2.421875 -0.65625q-1.875 -0.453125 -2.625 -0.859375q-0.96875 -0.515625 -1.453125 -1.265625q-0.46875 -0.75 -0.46875 -1.6875q0 -1.03125 0.578125 -1.921875q0.59375 -0.90625 1.703125 -1.359375q1.125 -0.46875 2.5 -0.46875q1.515625 0 2.671875 0.484375q1.15625 0.484375 1.765625 1.4375q0.625 0.9375 0.671875 2.140625l-1.71875 0.125q-0.140625 -1.28125 -0.953125 -1.9375q-0.796875 -0.671875 -2.359375 -0.671875q-1.625 0 -2.375 0.609375q-0.75 0.59375 -0.75 1.4375q0 0.734375 0.53125 1.203125q0.515625 0.46875 2.703125 0.96875q2.203125 0.5 3.015625 0.875q1.1875 0.546875 1.75 1.390625q0.578125 0.828125 0.578125 1.921875q0 1.09375 -0.625 2.0625q-0.625 0.953125 -1.796875 1.484375q-1.15625 0.53125 -2.609375 0.53125q-1.84375 0 -3.09375 -0.53125q-1.25 -0.546875 -1.96875 -1.625q-0.703125 -1.078125 -0.734375 -2.453125zm16.943573 4.375l-5.28125 -13.59375l1.953125 0l3.53125 9.875q0.4375 1.1875 0.71875 2.21875q0.3125 -1.109375 0.734375 -2.21875l3.671875 -9.875l1.84375 0l-5.328125 13.59375l-1.84375 0zm14.912323 -5.328125l0 -1.609375l5.765625 0l0 5.046875q-1.328125 1.0625 -2.75 1.59375q-1.40625 0.53125 -2.890625 0.53125q-2.0 0 -3.640625 -0.859375q-1.625 -0.859375 -2.46875 -2.484375q-0.828125 -1.625 -0.828125 -3.625q0 -1.984375 0.828125 -3.703125q0.828125 -1.71875 2.390625 -2.546875q1.5625 -0.84375 3.59375 -0.84375q1.46875 0 2.65625 0.484375q1.203125 0.46875 1.875 1.328125q0.671875 0.84375 1.03125 2.21875l-1.625 0.4375q-0.3125 -1.03125 -0.765625 -1.625q-0.453125 -0.59375 -1.296875 -0.953125q-0.84375 -0.359375 -1.875 -0.359375q-1.234375 0 -2.140625 0.375q-0.890625 0.375 -1.453125 1.0q-0.546875 0.609375 -0.84375 1.34375q-0.53125 1.25 -0.53125 2.734375q0 1.8125 0.625 3.046875q0.640625 1.21875 1.828125 1.8125q1.203125 0.59375 2.546875 0.59375q1.171875 0 2.28125 -0.453125q1.109375 -0.453125 1.6875 -0.953125l0 -2.53125l-4.0 0z" fill-rule="nonzero"></path><path fill="#000000" d="m113.0489 74.545l4.375 0l0 1.640625l-4.296875 0l0 1.40625q0 5.5625 -5.875 7.9375l-1.1875 -1.328125q5.34375 -1.78125 5.34375 -6.46875l0 -1.546875l-4.890625 0l0.078125 3.78125l-1.640625 0l-0.078125 -3.78125l-4.15625 0l0 -1.640625l4.15625 0l-0.0625 -3.9375l1.546875 0q0.75 0.078125 0.078125 0.75l0.078125 3.1875l4.828125 0l0 -4.53125l1.625 0q0.75 0.078125 0.078125 0.75l0 3.78125zm20.999992 1.265625q-3.9375 8.15625 -13.203117 8.609375q-0.375 0.96875 -0.75 0.15625l-0.59375 -1.9375q9.656242 -0.21875 12.984367 -7.9375l1.5625 1.109375zm-10.468742 0q-2.0 -1.859375 -3.78125 -3.046875l1.265625 -1.5625q1.5625 0.96875 3.9375 3.203125l-1.421875 1.40625zm25.683586 -4.15625q0.59375 0 0.96875 -0.375q0.375 -0.375 0.375 -0.96875q0 -0.59375 -0.375 -0.953125q-0.375 -0.375 -0.96875 -0.375q-0.59375 0 -0.96875 0.375q-0.359375 0.359375 -0.359375 0.953125q0 0.59375 0.359375 0.96875q0.375 0.375 0.96875 0.375zm0 0.734375q-0.890625 0 -1.484375 -0.59375q-0.59375 -0.59375 -0.59375 -1.484375q0 -0.890625 0.59375 -1.484375q0.59375 -0.59375 1.484375 -0.59375q0.890625 0 1.484375 0.59375q0.59375 0.59375 0.59375 1.484375q0 0.890625 -0.59375 1.484375q-0.59375 0.59375 -1.484375 0.59375zm-13.28125 0.96875l0 -1.625l10.984375 0l1.921875 1.40625q-0.359375 8.984375 -10.15625 11.734375l-1.34375 -1.640625q9.28125 -2.15625 9.71875 -9.875l-11.125 0zm26.945312 8.90625q3.265625 -1.265625 6.0 -5.046875l1.046875 1.40625q-2.828125 3.859375 -7.125 5.578125l-0.59375 0.296875l-1.1875 -0.890625l0.140625 -0.375l0 -11.953125l1.5625 0q0.671875 0.15625 0.15625 0.59375l0 10.390625zm-9.953125 2.0q3.71875 -3.5625 3.71875 -8.828125l0 -3.34375l1.546875 0q0.671875 0.15625 0.15625 0.59375l0 2.671875q0 6.234375 -3.9375 9.875l-1.484375 -0.96875z" fill-rule="nonzero"></path></g></svg>

